<?xml version="1.0" encoding="utf-8"?>
<!-- Generator: Adobe Illustrator 16.0.4, SVG Export Plug-In . SVG Version: 6.00 Build 0)  -->
<!DOCTYPE svg PUBLIC "-//W3C//DTD SVG 1.1//EN" "http://www.w3.org/Graphics/SVG/1.1/DTD/svg11.dtd">
<svg version="1.1" id="Layer_1" xmlns="http://www.w3.org/2000/svg" xmlns:xlink="http://www.w3.org/1999/xlink" x="0px" y="0px"
	 width="50px" height="50px" viewBox="0 0 50 50" enable-background="new 0 0 50 50" xml:space="preserve">
<g id="Layer_1_1_">
	<path fill="#D6D6D6" d="M6,0h38c3.312,0,6,2.687,6,6v38c0,3.312-2.688,6-6,6H6c-3.313,0-6-2.688-6-6V6C0,2.687,2.687,0,6,0z"/>
</g>
<g id="Layer_2">
	<path fill="#F0F0EE" d="M6,1h38c2.762,0,5,2.238,5,5v38c0,2.762-2.238,5-5,5H6c-2.762,0-5-2.238-5-5V6C1,3.238,3.238,1,6,1z"/>
</g>
<path fill="#CDCDCB" d="M25.169,10.027c-6.133,0-10.936,4.754-10.936,10.824c0,5.821,4.903,10.745,10.709,10.745
	c5.969,0,10.823-4.82,10.823-10.745C35.766,14.882,31.014,10.027,25.169,10.027 M24.943,27.386c-3.522,0-6.389-2.931-6.389-6.535
	c0-1.801,0.636-3.387,1.842-4.591c1.146-1.227,2.932-2.027,4.547-2.027c3.645,0,6.5,2.906,6.5,6.618
	C31.443,24.576,28.65,27.386,24.943,27.386"/>
<path fill="#CDCDCB" d="M25,33.032c-4.151,0-7.918,2.518-9.524,6.313h19.047C32.914,35.55,29.15,33.032,25,33.032"/>
</svg>
